<?xml version="1.0" encoding="UTF-8" standalone="no"?>
<svg
   xmlns:dc="http://purl.org/dc/elements/1.1/"
   xmlns:cc="http://creativecommons.org/ns#"
   xmlns:rdf="http://www.w3.org/1999/02/22-rdf-syntax-ns#"
   xmlns:svg="http://www.w3.org/2000/svg"
   xmlns="http://www.w3.org/2000/svg"
   xmlns:xlink="http://www.w3.org/1999/xlink"
   xmlns:sodipodi="http://sodipodi.sourceforge.net/DTD/sodipodi-0.dtd"
   xmlns:inkscape="http://www.inkscape.org/namespaces/inkscape"
   version="1.1"
   width="128"
   height="128"
   id="svg2"
   inkscape:version="0.48.0 r9654"
   sodipodi:docname="Crystal_Clear_action_bookmark_Silver-crossed_STOP.svg">
  <metadata
     id="metadata34">
    <rdf:RDF>
      <cc:Work
         rdf:about="">
        <dc:format>image/svg+xml</dc:format>
        <dc:type
           rdf:resource="http://purl.org/dc/dcmitype/StillImage" />
        <dc:title>Crystal Clear action bookmark</dc:title>
      </cc:Work>
    </rdf:RDF>
  </metadata>
  <defs
     id="defs32">
    <radialGradient
       gradientUnits="userSpaceOnUse"
       gradientTransform="matrix(0.1446, 0.1263, -1.2282, 1.4069, -78.3734, -769.516)"
       r="366.0851"
       cy="443.1116"
       cx="3844.8518"
       id="radialGradient3781">
      <stop
         id="stop3783"
         style="stop-color: rgb(255, 255, 255);"
         offset="0" />
      <stop
         id="stop3785"
         style="stop-color: rgb(255, 255, 255); stop-opacity: 0;"
         offset="1" />
    </radialGradient>
    <radialGradient
       inkscape:collect="always"
       xlink:href="#radialGradient3781"
       id="radialGradient3779"
       gradientUnits="userSpaceOnUse"
       gradientTransform="matrix(0.1446,0.1263,-1.2282,1.4069,-78.3734,-769.516)"
       cx="3844.8518"
       cy="443.1116"
       r="366.08511" />
    <radialGradient
       gradientTransform="matrix(0.122511,0.106945,-1.04008,1.19147,285.442,-88.2888)"
       gradientUnits="userSpaceOnUse"
       xlink:href="#linearGradient3177"
       id="radialGradient3233"
       fy="350.03537"
       fx="99.627365"
       r="366.08609"
       cy="350.03537"
       cx="99.627365" />
    <radialGradient
       gradientTransform="matrix(0.125402,0,0,0.119514,-84.8037,297.872)"
       gradientUnits="userSpaceOnUse"
       xlink:href="#linearGradient3185"
       id="radialGradient3231"
       fy="825.81067"
       fx="642.98547"
       r="435.31973"
       cy="825.81067"
       cx="642.98547" />
    <radialGradient
       gradientTransform="matrix(0.125402, 0, 0, 0.119514, -84.8037, 297.872)"
       gradientUnits="userSpaceOnUse"
       xlink:href="#linearGradient3185"
       id="radialGradient3221"
       fy="825.81067"
       fx="642.98547"
       r="435.31973"
       cy="825.81067"
       cx="642.98547" />
    <radialGradient
       gradientTransform="matrix(0.122511, 0.106945, -1.04008, 1.19147, 285.442, -88.2888)"
       gradientUnits="userSpaceOnUse"
       xlink:href="#linearGradient3177"
       id="radialGradient3218"
       fy="350.03537"
       fx="99.627365"
       r="366.08609"
       cy="350.03537"
       cx="99.627365" />
    <radialGradient
       gradientTransform="matrix(0.976944, 0.852815, -8.29396, 9.50117, 2952.47, -3056.79)"
       gradientUnits="userSpaceOnUse"
       xlink:href="#linearGradient3177"
       id="radialGradient3215"
       fy="350.03537"
       fx="99.627365"
       r="366.08609"
       cy="350.03537"
       cx="99.627365" />
    <radialGradient
       gradientTransform="matrix(1, 0, 0, 0.953048, 0, 22.5816)"
       gradientUnits="userSpaceOnUse"
       xlink:href="#linearGradient3185"
       id="radialGradient3213"
       fy="825.81067"
       fx="642.98547"
       r="435.31973"
       cy="825.81067"
       cx="642.98547" />
    <filter
       id="filter3203">
      <feGaussianBlur
         id="feGaussianBlur3205"
         stdDeviation="4.2510011"
         inkscape:collect="always" />
    </filter>
    <radialGradient
       gradientTransform="matrix(1, 0, 0, 0.953048, 0, 22.5816)"
       gradientUnits="userSpaceOnUse"
       xlink:href="#linearGradient3185"
       id="radialGradient3191"
       fy="825.81067"
       fx="642.98547"
       r="435.31973"
       cy="825.81067"
       cx="642.98547" />
    <radialGradient
       gradientTransform="matrix(0.976944, 0.852815, -8.29396, 9.50117, 2952.47, -3056.79)"
       gradientUnits="userSpaceOnUse"
       xlink:href="#linearGradient3177"
       id="radialGradient3183"
       fy="350.03537"
       fx="99.627365"
       r="366.08609"
       cy="350.03537"
       cx="99.627365" />
    <linearGradient
       id="linearGradient3177">
      <stop
         offset="0"
         style="stop-color: rgb(255, 255, 255); stop-opacity: 1;"
         id="stop3179" />
      <stop
         offset="1"
         style="stop-color: rgb(255, 255, 255); stop-opacity: 0;"
         id="stop3181" />
    </linearGradient>
    <linearGradient
       id="linearGradient3185">
      <stop
         offset="0"
         style="stop-color: rgb(255, 144, 31); stop-opacity: 1;"
         id="stop3187" />
      <stop
         offset="1"
         style="stop-color: rgb(255, 182, 31); stop-opacity: 1;"
         id="stop3189" />
    </linearGradient>
    <linearGradient
       y2="400.20569"
       x2="822.82599"
       y1="444.48099"
       x1="822.82599"
       gradientTransform="matrix(3.7566,0,0,-3.7566,-2510.8911,2327.0796)"
       gradientUnits="userSpaceOnUse"
       id="linearGradient3301"
       xlink:href="#path5021_1_"
       inkscape:collect="always" />
    <linearGradient
       y2="1080.3326"
       x2="340.99869"
       y1="1025.7056"
       x1="318.3714"
       gradientTransform="matrix(3.0836,-1.2773,-1.2773,-3.0836,908.4598,4451.1777)"
       gradientUnits="userSpaceOnUse"
       id="linearGradient3299"
       xlink:href="#path3743_1_"
       inkscape:collect="always" />
    <linearGradient
       id="path5021_1_"
       gradientUnits="userSpaceOnUse"
       x1="822.82599"
       y1="444.48099"
       x2="822.82599"
       y2="400.20569"
       gradientTransform="matrix(3.7566,0,0,-3.7566,-2510.8911,2327.0796)">
      <stop
         offset="0"
         style="stop-color:#FFFFFF"
         id="stop3030" />
      <stop
         offset="1"
         style="stop-color:#FFFFFF;stop-opacity:0"
         id="stop3032" />
    </linearGradient>
    <linearGradient
       id="path3743_1_"
       gradientUnits="userSpaceOnUse"
       x1="318.3714"
       y1="1025.7056"
       x2="340.99869"
       y2="1080.3326"
       gradientTransform="matrix(3.0836,-1.2773,-1.2773,-3.0836,908.4598,4451.1777)">
      <stop
         offset="0"
         style="stop-color:#CE1212"
         id="stop3024" />
      <stop
         offset="1"
         style="stop-color:#FF1212"
         id="stop3026" />
    </linearGradient>
    <linearGradient
       id="linearGradient3185-5">
      <stop
         id="stop3187-2"
         style="stop-color: rgb(255, 144, 31); stop-opacity: 1;"
         offset="0" />
      <stop
         id="stop3189-7"
         style="stop-color: rgb(255, 182, 31); stop-opacity: 1;"
         offset="1" />
    </linearGradient>
    <linearGradient
       id="linearGradient3177-7">
      <stop
         id="stop3179-1"
         style="stop-color: rgb(255, 255, 255); stop-opacity: 1;"
         offset="0" />
      <stop
         id="stop3181-1"
         style="stop-color: rgb(255, 255, 255); stop-opacity: 0;"
         offset="1" />
    </linearGradient>
    <radialGradient
       cx="99.627365"
       cy="350.03537"
       r="366.08609"
       fx="99.627365"
       fy="350.03537"
       id="radialGradient3183-1"
       xlink:href="#linearGradient3177-7"
       gradientUnits="userSpaceOnUse"
       gradientTransform="matrix(0.976944,0.852815,-8.29396,9.50117,2952.47,-3056.79)" />
    <radialGradient
       cx="642.98547"
       cy="825.81067"
       r="435.31973"
       fx="642.98547"
       fy="825.81067"
       id="radialGradient3191-5"
       xlink:href="#linearGradient3185-5"
       gradientUnits="userSpaceOnUse"
       gradientTransform="matrix(1,0,0,0.953048,0,22.5816)" />
    <filter
       color-interpolation-filters="sRGB"
       id="filter3203-4">
      <feGaussianBlur
         inkscape:collect="always"
         stdDeviation="4.2510011"
         id="feGaussianBlur3205-5" />
    </filter>
    <radialGradient
       cx="642.98547"
       cy="825.81067"
       r="435.31973"
       fx="642.98547"
       fy="825.81067"
       id="radialGradient3213-2"
       xlink:href="#linearGradient3185-5"
       gradientUnits="userSpaceOnUse"
       gradientTransform="matrix(1,0,0,0.953048,0,22.5816)" />
    <radialGradient
       cx="99.627365"
       cy="350.03537"
       r="366.08609"
       fx="99.627365"
       fy="350.03537"
       id="radialGradient3215-8"
       xlink:href="#linearGradient3177-7"
       gradientUnits="userSpaceOnUse"
       gradientTransform="matrix(0.976944,0.852815,-8.29396,9.50117,2952.47,-3056.79)" />
    <radialGradient
       cx="99.627365"
       cy="350.03537"
       r="366.08609"
       fx="99.627365"
       fy="350.03537"
       id="radialGradient3218-8"
       xlink:href="#linearGradient3177-7"
       gradientUnits="userSpaceOnUse"
       gradientTransform="matrix(0.122511,0.106945,-1.04008,1.19147,285.442,-88.2888)" />
    <radialGradient
       cx="642.98547"
       cy="825.81067"
       r="435.31973"
       fx="642.98547"
       fy="825.81067"
       id="radialGradient3221-4"
       xlink:href="#linearGradient3185-5"
       gradientUnits="userSpaceOnUse"
       gradientTransform="matrix(0.125402,0,0,0.119514,-84.8037,297.872)" />
    <radialGradient
       cx="642.98547"
       cy="825.81067"
       r="435.31973"
       fx="642.98547"
       fy="825.81067"
       id="radialGradient3231-9"
       xlink:href="#linearGradient3185-5"
       gradientUnits="userSpaceOnUse"
       gradientTransform="matrix(0.125402,0,0,0.119514,-84.8037,297.872)" />
    <radialGradient
       cx="99.627365"
       cy="350.03537"
       r="366.08609"
       fx="99.627365"
       fy="350.03537"
       id="radialGradient3233-0"
       xlink:href="#linearGradient3177-7"
       gradientUnits="userSpaceOnUse"
       gradientTransform="matrix(0.122511,0.106945,-1.04008,1.19147,285.442,-88.2888)" />
  </defs>
  <sodipodi:namedview
     pagecolor="#ffffff"
     bordercolor="#666666"
     borderopacity="1"
     objecttolerance="10"
     gridtolerance="10"
     guidetolerance="10"
     inkscape:pageopacity="0"
     inkscape:pageshadow="2"
     inkscape:window-width="1280"
     inkscape:window-height="746"
     id="namedview30"
     showgrid="false"
     inkscape:zoom="1.0273438"
     inkscape:cx="-147.96073"
     inkscape:cy="11.230973"
     inkscape:window-x="-4"
     inkscape:window-y="-4"
     inkscape:window-maximized="1"
     inkscape:current-layer="g3859" />
  <title
     id="title4">Crystal Clear action bookmark</title>
  <filter
     id="f1">
    <feGaussianBlur
       id="fgb1"
       stdDeviation="4.2510011" />
  </filter>
  <radialGradient
     id="rg1"
     cx="3272.0874"
     cy="5380.6934"
     r="435.31769"
     gradientTransform="matrix(0.1481,0,0,0.1412,-488.748,-362.882)"
     gradientUnits="userSpaceOnUse"
     xlink:href="#rg2">
    <stop
       offset="0"
       style="stop-color:#868a75;stop-opacity:1;"
       id="stop9" />
    <stop
       offset="1"
       style="stop-color:#949292;stop-opacity:0.41935483;"
       id="stop11" />
  </radialGradient>
  <radialGradient
     id="rg2"
     cx="3844.8518"
     cy="443.1116"
     r="366.0851"
     gradientTransform="matrix(0.1446, 0.1263, -1.2282, 1.4069, -78.3734, -769.516)"
     gradientUnits="userSpaceOnUse">
    <stop
       offset="0"
       style="stop-color: rgb(255, 255, 255);"
       id="stop14" />
    <stop
       offset="1"
       style="stop-color: rgb(255, 255, 255); stop-opacity: 0;"
       id="stop16" />
  </radialGradient>
  <g
     transform="matrix(1.08667, 0, 0, 1.08667, 96.7332, -323.297)"
     id="g18">
    <g
       style="filter: url(#f1);"
       id="g20">
      <polygon
         style="fill: rgb(153, 153, 153);"
         points="6.826,413.357 -29.222,389.206 -65.046,413.821 -54.485,372.701 -87.696,345.61 -44.824,343.532 -29.822,302.989 -13.179,343.975 28.595,344.86 -4.891,372.435"
         id="polygon22" />
    </g>
    <path
       style="fill:#80816e;stroke:#787374;stroke-width:1.50000000000000000;stroke-linejoin:round;fill-opacity:1;stroke-opacity:1"
       d="M6.254,410.113l-36.048-24.149l-35.824,24.613l10.56-41.12l-33.211-27.091l42.872-2.077l15.002-40.543l16.643,40.986l41.776,0.885l-33.488,27.575L6.254,410.113z"
       id="path24" />
    <path
       style="fill:url(#rg1) rgb(0, 0, 0);fill-opacity:1;opacity:1"
       d="M4.316,407.421l-34.205-24.852l-33.177,24.811l9.638-38.431l-30.903-25.61l40.161-1.807l13.702-38.342l15.713,39.065l39.605,0.38L-9.13,367.739L4.316,407.421z"
       id="path26" />
    <path
       style="fill:url(#radialGradient3779);fill-opacity:1;opacity:0.85152838"
       d="M-59.084,391.597l5.656-22.648l-30.808-25.322l40.065-2.025l13.677-38.33l15.805,38.986l22.982,0.255C-27.45,351.397-38.262,356.103-59.084,391.597z"
       id="path28" />
    <g
       id="g3859"
       transform="matrix(0.92024258,0,0,0.92024258,-211.31107,204.37854)">
      <g
         id="g3179"
         transform="translate(130.8922,98.178363)">
        <g
           transform="translate(1.6214598,2.0417172)"
           id="g3184" />
        <g
           transform="matrix(0.27752132,0,0,0.28162328,45.10824,43.642494)"
           id="g3045">
          <g
             id="layer1"
             transform="translate(-463.84454,-666.74359)"
             inkscape:label="layer1">
            <g
               id="g5072">
              <path
                 style="fill:#fdeeee"
                 inkscape:connector-curvature="0"
                 id="path_X"
                 d="m 538.47,723.681 -17.688,17.688 42.219,42.219 -42.219,42.219 17.688,17.688 42.219,-42.219 42.219,42.219 17.688,-17.688 -42.219,-42.219 42.219,-42.219 -17.688,-17.688 -42.22,42.219 -42.218,-42.219 z" />
              <path
                 style="fill:#7e0000"
                 inkscape:connector-curvature="0"
                 id="path3717"
                 d="m 532.534,668.183 h 95.107 l 67.251,67.251 v 95.107 l -67.251,67.251 h -95.107 l -67.251,-67.251 v -95.107 l 67.251,-67.251 z" />
              <g
                 style="filter:url(#filter5068)"
                 id="path5042">
                <polygon
                   style="opacity:0.25659999"
                   points="540.048,905.304 472.797,838.054 472.797,742.947 540.048,675.696 635.155,675.696 702.405,742.947 702.405,838.054 635.155,905.304 "
                   id="polygon3020" />
              </g>
              <path
                 style="fill:#e78a8a"
                 inkscape:connector-curvature="0"
                 id="path3741"
                 d="m 535.315,674.896 h 89.546 l 63.318,63.318 v 89.546 l -63.319,63.318 -89.545,-10e-4 -63.318,-63.318 v -89.545 l 63.318,-63.318 z" />
              <linearGradient
                 id="linearGradient3218"
                 gradientUnits="userSpaceOnUse"
                 x1="318.3714"
                 y1="1025.7056"
                 x2="340.99869"
                 y2="1080.3326"
                 gradientTransform="matrix(3.0836,-1.2773,-1.2773,-3.0836,908.4598,4451.1777)">
                <stop
                   offset="0"
                   style="stop-color:#CE1212"
                   id="stop3220" />
                <stop
                   offset="1"
                   style="stop-color:#FF1212"
                   id="stop3222" />
              </linearGradient>
              <path
                 style="fill:url(#linearGradient3299)"
                 inkscape:connector-curvature="0"
                 id="path3743"
                 d="m 539.216,684.312 h 81.745 l 57.803,57.802 v 81.746 l -57.803,57.802 H 539.216 L 481.413,823.86 v -81.746 l 57.803,-57.802 z" />
              <linearGradient
                 id="linearGradient3225"
                 gradientUnits="userSpaceOnUse"
                 x1="822.82599"
                 y1="444.48099"
                 x2="822.82599"
                 y2="400.20569"
                 gradientTransform="matrix(3.7566,0,0,-3.7566,-2510.8911,2327.0796)">
                <stop
                   offset="0"
                   style="stop-color:#FFFFFF"
                   id="stop3227" />
                <stop
                   offset="1"
                   style="stop-color:#FFFFFF;stop-opacity:0"
                   id="stop3229" />
              </linearGradient>
              <path
                 style="fill:url(#linearGradient3301)"
                 inkscape:connector-curvature="0"
                 id="path5021"
                 d="m 535.274,674.923 -63.275,63.275 v 27.181 c 86.39,20.062 121.77,-25.947 216.238,-1.002 v -26.179 l -63.393,-63.275 h -89.57 z" />
            </g>
          </g>
          <g
             id="layer2"
             inkscape:label="nuovo">
            <g
               id="g_STOP"
               transform="matrix(0.35,0,0,0.35,-192.08331,-18.73121)">
              <path
                 style="fill:#ffffff;stroke:#000000;stroke-width:1.5"
                 inkscape:connector-curvature="0"
                 id="text_S"
                 d="m 736.597,447.6 c 0,9.481 -1.677,18.329 -5.027,26.535 -3.351,8.203 -7.974,15.313 -13.87,21.325 -5.894,6.01 -12.715,10.815 -20.462,14.392 -7.748,3.585 -16.13,5.379 -25.148,5.379 -10.173,0 -19.304,-1.964 -27.393,-5.898 -8.089,-3.931 -14.911,-9.241 -20.458,-15.946 -5.552,-6.702 -9.828,-14.453 -12.835,-23.239 -3.005,-8.783 -4.508,-17.921 -4.508,-27.394 h 32.598 c 0,4.855 0.633,9.651 1.904,14.389 1.27,4.738 3.235,9.015 5.894,12.829 2.659,3.82 6.016,6.881 10.059,9.194 4.049,2.31 8.959,3.465 14.738,3.465 4.397,0 8.616,-0.924 12.665,-2.771 4.046,-1.847 7.513,-4.392 10.403,-7.631 2.888,-3.237 5.199,-6.992 6.929,-11.27 1.734,-4.277 2.599,-8.733 2.599,-13.359 0,-6.702 -1.387,-12.653 -4.159,-17.852 -2.772,-5.198 -7.627,-10.458 -14.561,-15.778 -1.159,-1.161 -1.621,-1.797 -1.388,-1.911 0.233,-0.117 -0.46,-0.753 -2.08,-1.903 -1.618,-1.158 -5.029,-3.41 -10.233,-6.766 -5.205,-3.357 -13.7,-9.075 -25.49,-17.161 -9.477,-6.476 -16.585,-14.051 -21.327,-22.723 -4.741,-8.668 -7.112,-18.206 -7.112,-28.606 0,-8.323 1.504,-16.127 4.51,-23.408 3.005,-7.281 7.224,-13.697 12.658,-19.248 5.434,-5.547 11.733,-9.881 18.902,-13.006 7.167,-3.121 14.911,-4.682 23.227,-4.682 8.329,0 16.016,1.503 23.069,4.509 7.052,3.005 13.178,7.167 18.376,12.487 5.201,5.319 9.361,11.68 12.485,19.075 3.121,7.4 4.8,15.491 5.032,24.273 h -31.91 c -0.456,-8.092 -3.231,-14.563 -8.318,-19.421 -5.086,-4.852 -11.331,-7.28 -18.735,-7.28 -7.624,0 -14.097,2.543 -19.413,7.63 -5.317,5.089 -7.976,11.445 -7.976,19.071 0,5.778 1.504,10.635 4.51,14.565 3.004,3.93 8.782,8.32 17.334,13.175 22.43,12.948 38.788,26.124 49.076,39.531 10.29,13.414 15.435,28.554 15.435,45.429 l 0,0 z" />
              <path
                 style="fill:#ffffff;stroke:#000000;stroke-width:1.5"
                 inkscape:connector-curvature="0"
                 id="text_T"
                 d="M 820.199,309.515 V 511.523 H 786.478 V 309.515 h -42.423 v -30.95 H 862.62 v 30.95 h -42.421 z" />
              <path
                 style="fill:#ffffff;stroke:#000000;stroke-width:1.5"
                 inkscape:connector-curvature="0"
                 id="text_O"
                 d="m 1010.584,394.7 c 0,17.825 -0.982,32.984 -2.946,45.487 -1.97,12.497 -5.385,24.308 -10.254,35.421 -5.79,13.887 -13.022,24.015 -21.696,30.379 -8.683,6.364 -19.621,9.548 -32.815,9.548 -13.89,0 -25.176,-3.184 -33.856,-9.548 -8.686,-6.364 -15.915,-16.493 -21.703,-30.379 -4.862,-11.348 -8.273,-23.214 -10.24,-35.597 -1.968,-12.383 -2.955,-27.486 -2.955,-45.311 0,-17.591 0.986,-32.694 2.955,-45.313 1.967,-12.616 5.378,-24.48 10.24,-35.593 6.017,-13.889 13.369,-23.902 22.052,-30.039 8.683,-6.134 19.852,-9.201 33.507,-9.201 13.418,0 24.417,3.066 32.983,9.201 8.566,6.137 15.739,16.384 21.529,30.738 2.316,5.785 4.342,11.574 6.08,17.358 1.735,5.787 3.131,11.862 4.174,18.225 1.035,6.366 1.789,13.196 2.257,20.49 0.456,7.292 0.688,15.336 0.688,24.134 l 0,0 z m -31.945,0 c 0,-6.487 -0.179,-12.387 -0.519,-17.712 -0.352,-5.324 -0.812,-10.241 -1.395,-14.754 -0.575,-4.516 -1.328,-8.856 -2.255,-13.02 -0.926,-4.164 -1.967,-8.33 -3.125,-12.499 -3.011,-10.42 -6.775,-17.944 -11.283,-22.575 -4.517,-4.629 -10.246,-6.946 -17.19,-6.946 -14.358,0 -24.191,9.608 -29.515,28.821 -2.779,8.797 -4.69,17.649 -5.731,26.563 -1.035,8.912 -1.56,19.848 -1.56,32.811 0,6.253 0.173,11.984 0.525,17.196 0.346,5.212 0.804,10.07 1.384,14.584 0.58,4.517 1.331,8.97 2.263,13.368 0.924,4.397 1.964,8.909 3.119,13.535 5.324,19.213 15.156,28.825 29.515,28.825 6.945,0 12.673,-2.313 17.19,-6.942 4.509,-4.632 8.273,-11.928 11.283,-21.883 1.384,-4.626 2.542,-9.076 3.468,-13.362 0.938,-4.277 1.682,-8.733 2.257,-13.368 0.578,-4.632 0.982,-9.545 1.214,-14.757 0.238,-5.214 0.355,-11.174 0.355,-17.885 l 0,0 z" />
              <path
                 style="fill:#ffffff;stroke:#000000;stroke-width:1.5"
                 inkscape:connector-curvature="0"
                 id="text_P"
                 d="m 1158.399,345.048 c 0,21.681 -5.073,38.182 -15.218,49.496 -10.145,11.317 -24.699,16.973 -43.647,16.973 h -34.785 V 515.476 H 1032.64 V 278.565 h 66.895 c 8.694,0 16.666,1.593 23.915,4.775 7.246,3.182 13.493,7.663 18.73,13.442 5.243,5.774 9.252,12.79 12.042,21.041 2.785,8.249 4.177,17.326 4.177,27.225 l 0,0 z m -31.437,0 c 0,-9.9 -2.676,-17.916 -8.027,-24.043 -5.354,-6.129 -12.383,-9.192 -21.077,-9.192 h -33.108 v 67.181 h 33.108 c 9.367,10e-4 16.554,-2.946 21.577,-8.842 5.016,-5.895 7.527,-14.262 7.527,-25.104 l 0,0 z" />
            </g>
          </g>
        </g>
      </g>
    </g>
  </g>
</svg>
